# xmcd
#
# Track frame offsets:
#	150
#	23826
#	43163
#	60507
#	75533
#	93930
#	112796
#	144483
#	157303
#	175016
#	188146
#	206383
#	223177
#	241378
#
# Disc length: 3551 seconds
# Revision: 0
# Processed by: cddbd v1.5.2PL0 Copyright (c) Steve Scherf et al.
# Submitted via: dBpowerAMP V12.0
#
DISCID=b90ddd0e
DTITLE=Chitãozinho and Xororó - Elas em Evidencias  Live Talentos
DYEAR=2017
DGENRE=Sertanejo
TTITLE0=Sinonimos (part.especial PAULA FERNANDES)
TTITLE1=Brincar de ser feliz (part.especial PAULA FERNANDES)
TTITLE2=Eu Menti (part.especial SIMONE E SIMARIA)
TTITLE3=Alo (part.especial SIMONE E SIMARIA)
TTITLE4=Nuvem de Lagrimas (part.especial MAIARA E MARAISA)
TTITLE5=No Rancho Fundo (part.especial ANAVITORIA)
TTITLE6=Caipira - Majestade, o Sabia (part.especial BRUNA VIOLA)
TTITLE7=Fio De Cabelo (part.especial TANIA MARA)
TTITLE8=Joao e Maria (part.especial ANA CLARA)
TTITLE9=Foi So Um Caso (part.especial MARILIA MENDONCA)
TTITLE10=Era uma vez (part.especial KELL SMITH)
TTITLE11=Pode Ser Pra Valer (part.especial KELL SMITH)
TTITLE12=Separacao (part.especial ALCIONE)
TTITLE13=Evidencias
EXTD=
EXTT0=
EXTT1=
EXTT2=
EXTT3=
EXTT4=
EXTT5=
EXTT6=
EXTT7=
EXTT8=
EXTT9=
EXTT10=
EXTT11=
EXTT12=
EXTT13=
PLAYORDER=
